<svg width="120" height="140" version="1.1" viewBox="0 0 31.75 37.042" xmlns="http://www.w3.org/2000/svg">
    <g fill="none" stroke="#5c5470">
        <g transform="matrix(0 .58186 -.58186 0 130.02 -43.255)" stroke-width=".88215">
            <path d="m105.16 192.94 3.8558 3.2396-3.8558 3.2396" stroke-linecap="round"/>
            <path d="m109.01 196.18h-10.266"/>
        </g>
        <g transform="translate(-50.954 66.076)" stroke-width=".25664">
            <path d="m63.675-64.56v8.8373h6.3069v-6.7641h-2.2363v-2.0809z"/>
            <path d="m64.594-61.899h1.8207"/>
            <path d="m64.594-59.902h4.4764"/>
            <path d="m64.594-57.905h4.5156"/>
        </g>
        <path d="m20.197 6.7571c5.9372 1.8416 10.249 7.3772 10.249 13.92 0 8.0477-6.524 14.572-14.572 14.572-8.0477-1e-6 -14.572-6.524-14.572-14.572 0-6.6025 4.3912-12.179 10.412-13.969"
              stroke-linecap="round" stroke-width=".52917"/>
        <path d="m14.78 16.46h-1.5138v-0.86145c0-0.29216-0.23752-0.53123-0.52968-0.53123h-3.1419c-0.29216 0-0.53123 0.23907-0.53123 0.53123v0.86145h-1.0961c-0.2352 0-0.42478 0.18958-0.42478 0.42478v8.9777c0 0.2352 0.18958 0.42478 0.42478 0.42478h15.816c0.2352 0 0.42426-0.18958 0.42426-0.42478v-8.9777c0-0.2352-0.18906-0.42478-0.42426-0.42478h-6.8577"
              stroke-linecap="round" stroke-width=".26458"/>
    </g>
</svg>
