<svg width="120" height="140" version="1.1" viewBox="0 0 31.75 37.042" xmlns="http://www.w3.org/2000/svg">
 <g fill="none" stroke="#5c5470">
  <path d="m17.756 18.192-1.885 2.2435-1.885-2.2435" stroke-linecap="round" stroke-width=".51329"/>
  <path d="m15.871 20.433v-5.9734" stroke-width=".51329"/>
  <path d="m22.282 7.8447c4.8358 2.3709 8.1652 7.3424 8.1652 13.092 0 8.0477-6.524 14.572-14.572 14.572-8.0477-1e-6 -14.572-6.524-14.572-14.572 0-5.7462 3.326-10.716 8.1579-13.088" stroke-linecap="round" stroke-width=".52917"/>
  <path d="m12.009 2.222c-0.17986 0-0.32704 0.14718-0.32704 0.32704v0.53032h-0.67475c-0.14479 0-0.2615 0.11671-0.2615 0.2615v5.5269c0 0.14479 0.11671 0.2615 0.2615 0.2615h9.7364c0.14479 0 0.26118-0.11671 0.26118-0.2615v-5.5269c0-0.14479-0.11639-0.2615-0.26118-0.2615h-6.4743v-0.53032c0-0.17986-0.14622-0.32704-0.32608-0.32704z" stroke-linecap="round" stroke-width=".26458"/>
 </g>
 <rect x="4.4657" y="16.95" width="8.0618" height=".98597" rx=".26459" ry=".26459" fill="#5c5470"/>
 <rect x="11.757" y="33.141" width="8.0618" height=".98597" rx=".26459" ry=".26459" fill="#5c5470"/>
 <g transform="translate(0 .99251)" fill="#5c5470">
  <rect x="4.4296" y="17.892" width="3.9708" height="1.0582" rx=".26459" ry=".26459"/>
  <rect x="9.1276" y="17.892" width="3.9708" height="1.0582" rx=".26459" ry=".26459"/>
 </g>
 <g fill="#5c5470">
  <rect x="9.0714" y="25.039" width="3.3577" height=".98597" rx=".26459" ry=".26459"/>
  <rect x="13.235" y="25.039" width="8.0618" height=".98597" rx=".26459" ry=".26459"/>
  <rect x="9.0714" y="27.041" width="8.0618" height=".98597" rx=".26459" ry=".26459"/>
  <rect x="17.915" y="27.016" width="5.1281" height="1.0344" rx=".26459" ry=".26459"/>
  <rect x="6.9837" y="20.955" width="8.0618" height=".98597" rx=".26459" ry=".26459"/>
 </g>
 <g transform="translate(4.1202 11.12)" fill="#5c5470">
  <rect x="6.9837" y="20.023" width="8.0618" height=".98597" rx=".26459" ry=".26459"/>
  <rect x="4.4024" y="19.96" width="1.9436" height="1.1126" rx=".26459" ry=".26459"/>
 </g>
 <g fill="#5c5470">
  <rect x="9.0291" y="22.981" width="3.9708" height="1.0582" rx=".26459" ry=".26459"/>
  <rect x="16.425" y="23.017" width="8.0618" height=".98597" rx=".26459" ry=".26459"/>
  <rect x="13.844" y="22.953" width="1.9436" height="1.1126" rx=".26459" ry=".26459"/>
  <rect x="9.0291" y="29.045" width="3.9708" height="1.0582" rx=".26459" ry=".26459"/>
  <rect x="16.425" y="29.081" width="8.0618" height=".98597" rx=".26459" ry=".26459"/>
  <rect x="13.844" y="29.018" width="1.9436" height="1.1126" rx=".26459" ry=".26459"/>
 </g>
 <path d="m3.2833 28.153v-14.492m1.2994-1.7928h10.098m2.3945 0h5.4975v6.0474h5.682v10.515" fill="none" stroke="#5c5470" stroke-linecap="round" stroke-width=".52917"/>
</svg>
