<svg width="120" height="140" version="1.1" viewBox="0 0 31.75 37.042" xmlns="http://www.w3.org/2000/svg">
    <g fill="none" stroke="#5c5470">
        <path d="m14.896 1.7733a2.4694 2.4694 0 0 0-2.4637 2.3231 2.4596 2.4596 0 0 0-2.1859 2.4328 2.4596 2.4596 0 0 0 2.4598 2.4598 2.4596 2.4596 0 0 0 0.15938-0.0062c0.0283 0.0037 0.0569 0.0062 0.0862 0.0062h6.4568c0.023 0 0.0458-0.0013 0.0683-0.0036a1.9293 1.9293 0 0 0 6.3e-4 0 1.9293 1.9293 0 0 0 0.0963 0.0036 1.9293 1.9293 0 0 0 1.9292-1.9296 1.9293 1.9293 0 0 0-1.9084-1.927 1.6796 1.6796 0 0 0-1.6238-1.2504 1.6796 1.6796 0 0 0-0.61641 0.12686 2.4694 2.4694 0 0 0-2.4585-2.2356z"
              stroke-linejoin="bevel" stroke-width=".26458"/>
        <g transform="matrix(0 -.58186 -.58186 0 130.02 75.243)" stroke-width=".88215">
            <path d="m105.16 192.94 3.8558 3.2396-3.8558 3.2396" stroke-linecap="round"/>
            <path d="m109.01 196.18h-10.266"/>
        </g>
        <path d="m22.716 7.8727c4.5996 2.4502 7.7307 7.2941 7.7307 12.869 0 8.0477-6.524 14.572-14.572 14.572-8.0478-1e-6 -14.572-6.524-14.572-14.572 0-5.7231 3.2994-10.676 8.0998-13.059"
              stroke-linecap="round" stroke-width=".52917"/>
        <path d="m14.78 16.525h-1.5138v-0.86145c0-0.29216-0.23752-0.53123-0.52968-0.53123h-3.1419c-0.29216 0-0.53123 0.23907-0.53123 0.53123v0.86145h-1.0961c-0.2352 0-0.42478 0.18958-0.42478 0.42478v8.9777c0 0.2352 0.18958 0.42478 0.42478 0.42478h15.816c0.2352 0 0.42427-0.18958 0.42427-0.42478v-8.9777c0-0.2352-0.18907-0.42478-0.42427-0.42478h-6.8577"
              stroke-linecap="round" stroke-width=".26458"/>
    </g>
</svg>
