<svg width="120" height="140" version="1.1" viewBox="0 0 31.75 37.042" xmlns="http://www.w3.org/2000/svg">
 <g fill="none" stroke="#5c5470">
  <g transform="matrix(0 .58186 -.58186 0 130.02 -42.996)" stroke-width=".88215">
   <path d="m105.16 192.94 3.8558 3.2396-1.9279 1.6198-1.9279 1.6198" stroke-linecap="round"/>
   <path d="m109.01 196.18h-10.266"/>
  </g>
  <g stroke-linecap="round">
   <path d="m22.282 7.8447c4.8358 2.3709 8.1652 7.3424 8.1652 13.092 0 8.0477-6.524 14.572-14.572 14.572-8.0477-1e-6 -14.572-6.524-14.572-14.572 0-5.7462 3.326-10.716 8.1579-13.088" stroke-width=".52917"/>
   <path d="m14.78 16.719h-1.5138v-0.86145c0-0.29216-0.23752-0.53123-0.52968-0.53123h-3.1419c-0.29216 0-0.53123 0.23907-0.53123 0.53123v0.86145h-1.0961c-0.2352 0-0.42478 0.18958-0.42478 0.42478v8.9777c0 0.2352 0.18958 0.42478 0.42478 0.42478h15.816c0.2352 0 0.42426-0.18958 0.42426-0.42478v-8.9777c0-0.2352-0.18906-0.42478-0.42426-0.42478h-6.8577" stroke-width=".26458"/>
   <path d="m12.009 2.222c-0.17986 0-0.32704 0.14718-0.32704 0.32704v0.53032h-0.67475c-0.14479 0-0.2615 0.11671-0.2615 0.2615v5.5269c0 0.14479 0.11671 0.2615 0.2615 0.2615h9.7364c0.14479 0 0.26118-0.11671 0.26118-0.2615v-5.5269c0-0.14479-0.11639-0.2615-0.26118-0.2615h-6.4743v-0.53032c0-0.17986-0.14622-0.32704-0.32608-0.32704z" stroke-width=".26458"/>
  </g>
 </g>
</svg>
