<svg width="80" height="80" version="1.1" viewBox="0 0 21.167 21.167" xmlns="http://www.w3.org/2000/svg">
 <path d="m16.231 16.231-0.85364 2.3291-2.459-0.32652-1.8382 1.6656-2.0256-1.4319-2.4017 0.62054-1.1282-2.2092-2.415-0.56668 0.027738-2.4804-1.875-1.6241 1.1773-2.1834-0.90551-2.3094 2.0571-1.3862 0.27145-2.4657 2.4657-0.27145 1.3862-2.0571 2.3094 0.90551 2.1834-1.1773 1.6241 1.875 2.4804-0.027738 0.56668 2.415 2.2092 1.1282-0.62054 2.4017 1.4319 2.0256-1.6656 1.8382 0.32652 2.459z" fill="#5c5470"/>
 <circle cx="14.552" cy="14.552" r="0" fill="none" stroke="#00a3fa" stroke-linecap="round" stroke-width=".26185"/>
 <path d="m7.2544 10.484 2.8626 2.5872 3.7953-5.3713" fill="none" stroke="#fff" stroke-linecap="round" stroke-width="1.5875"/>
</svg>
