<svg width="620" height="510" version="1.1" viewBox="0 0 164.04 134.94" xmlns="http://www.w3.org/2000/svg">
 <g fill="none" stroke="#5c5470">
  <path d="m49.761 99.678c-0.06175 0.47794-0.33244 0.93679-0.57643 1.192-0.24399 0.25517-0.3205 0.58061-0.32061 0.91231 2.2e-5 0.80615 0.65353 1.4597 1.4597 1.4597 0.80616-2e-5 1.4597-0.65353 1.4597-1.4597-3.81e-4 -0.27853 0.01405-0.4822-0.2305-0.78571-0.24455-0.3035-0.73652-0.83951-0.74697-1.3186 1.81e-4 -0.52705 0.28438-0.98305 0.73915-1.2411 1.4736 0.27535 2.9638 0.66613 4.3027 0 0.30477-0.15163 0.60534-0.30156 0.60534-0.64197v-2.5956c0.15247-0.18149 0.74242-0.39549 1.1977-0.39717 0.47794 0.06175 0.93678 0.33281 1.192 0.5768 0.25517 0.24399 0.58061 0.3205 0.9123 0.32061 0.80616-2.3e-5 1.4597-0.65354 1.4597-1.4597-2.2e-5 -0.80615-0.65353-1.4597-1.4597-1.4597v-3.81e-4c-0.27853 3.81e-4 -0.48219-0.01369-0.7857 0.23087-0.3035 0.24455-0.83952 0.73652-1.3186 0.74697-0.47674-1.63e-4 -0.92679-0.23307-1.1977-0.61404v-2.4591c0-0.3404-0.27092-0.75244-0.60534-0.68887-2.2037 0.41886-3.477 0.29964-4.4383 0-0.37501-0.27147-0.60345-0.63452-0.60361-1.1071 0.01045-0.47904 0.50242-1.0151 0.74697-1.3186 0.24455-0.3035 0.23012-0.50718 0.2305-0.7857-2.3e-5 -0.80616-0.65353-1.4597-1.4597-1.4597-0.80616 2.3e-5 -1.4597 0.65354-1.4597 1.4597 1.08e-4 0.3317 0.07662 0.65713 0.32061 0.91231 0.24399 0.25517 0.51468 0.71402 0.57643 1.192-0.0017 0.45526-0.21568 0.95813-0.39717 1.1071-1.61-0.82261-3.3253-0.8451-5.1549 0-0.30903 0.14275-0.61888 0.34847-0.61888 0.68887v2.477c0.27185 0.37061 0.71099 0.596 1.1804 0.59616 0.47904-0.01045 1.0151-0.50242 1.3186-0.74697 0.30351-0.24456 0.50717-0.23012 0.7857-0.2305 0.80616 2.3e-5 1.4597 0.65354 1.4597 1.4597-2.3e-5 0.80616-0.65354 1.4597-1.4597 1.4597-0.3317-1.15e-4 -0.65714-0.07662-0.91231-0.32061-0.25517-0.24399-0.71402-0.51468-1.192-0.57643-0.45526 0.0017-1.0343 0.21568-1.1804 0.39717v2.5952c0 0.34041 0.28178 0.68933 0.61888 0.64197 1.653-0.23227 3.3023-0.64063 4.9734 0 0.36298 0.32989 0.57698 0.78585 0.57866 1.2411z" stroke-linecap="round" stroke-width=".26458"/>
  <circle cx="50.882" cy="94.223" r="14.572" stroke-linecap="round" stroke-width=".26458"/>
  <g transform="matrix(.58186 0 0 .58186 21.377 -19.923)" stroke-width=".88215">
   <path d="m105.16 192.94 3.8558 3.2396-1.9279 1.6198-1.9279 1.6198" stroke-linecap="round"/>
   <path d="m109.01 196.18h-10.266"/>
  </g>
 </g>
 <g fill="#5c5470" stroke-width=".25664">
  <text x="104.70353" y="115.46728" font-family="Helvetica-Light" font-size="5.475px" style="line-height:1.25" xml:space="preserve"><tspan x="104.70353" y="115.46728" fill="#5c5470" font-family="Helvetica" font-size="5.475px" stroke-width=".25664">Catalog</tspan></text>
  <text x="50.984577" y="116.022" font-family="Helvetica-Light" font-size="5.475px" text-align="center" text-anchor="middle" style="line-height:1.25" xml:space="preserve"><tspan x="50.984577" y="116.022" font-family="Helvetica" text-align="center">API</tspan><tspan x="50.984577" y="122.86577" text-align="center"/></text>
  <text x="81.998108" y="58.292423" font-family="Helvetica" font-size="5.475px" text-align="center" text-anchor="middle" style="line-height:1.25" xml:space="preserve"><tspan x="81.998108" y="58.292423" text-align="center">Metadata and</tspan><tspan x="81.998108" y="65.333656" text-align="center">Taxonomy</tspan></text>
 </g>
 <text x="29.737646" y="58.33519" fill="#808080" font-family="Helvetica-Light" font-size="5.475px" stroke-width=".25664" text-align="center" text-anchor="middle" style="line-height:1.25" xml:space="preserve"><tspan x="29.737646" y="58.33519" font-family="Helvetica" text-align="center">Backup your files</tspan><tspan x="29.737646" y="65.178955" text-align="center"/></text>
 <g transform="translate(-24.925 31.304)" fill="none" stroke="#5c5470">
  <g stroke-linecap="round">
   <circle cx="139" cy="62.919" r="14.572" stroke-width=".26458"/>
   <path d="m134.82 61.159 1.7927 2.2549 3.4634-3.5192" stroke-width=".52917"/>
   <circle cx="137.31" cy="61.622" r="5.5178" stroke-width=".26458"/>
   <rect transform="rotate(-45)" x="52.163" y="146.1" width="2.6587" height="5.9018" rx=".52917" ry=".52917" stroke-width=".26458"/>
   <circle cx="137.31" cy="61.622" r="4.9381" stroke-width=".27895"/>
  </g>
  <path d="m141.28 66.443 2.9885 2.9885" stroke-width=".26458px"/>
 </g>
 <text x="111.50439" y="58.279049" fill="#808080" font-family="Helvetica-Light" font-size="5.475px" stroke-width=".25664" style="line-height:1.25" xml:space="preserve"><tspan x="111.50439" y="58.279049" fill="#808080" font-family="Helvetica" font-size="5.475px" stroke-width=".25664">Backup your token</tspan></text>
 <g transform="translate(3.7593 22.397)" stroke="#5c5470">
  <circle cx="78.262" cy="15.672" r="14.572" fill="none" stroke-linecap="round" stroke-width=".26458"/>
  <g transform="translate(58.435 -3.0673)">
   <g fill="none" stroke-width=".25664">
    <path d="m22.484 14.324v8.8373h6.3069v-6.7641h-2.2363v-2.0809z"/>
    <path d="m23.402 16.986h1.8207"/>
    <path d="m23.402 18.983h4.4764"/>
    <path d="m23.402 20.98h4.5156"/>
    <path d="m10.861 14.324v8.8373h6.3069v-6.7641h-2.2363v-2.0809z"/>
    <path d="m11.78 16.986h1.8207"/>
    <path d="m11.78 18.983h4.4764"/>
    <path d="m11.78 20.98h4.5156"/>
   </g>
   <text x="18.135078" y="19.971651" fill="#00a3fa" font-family="Helvetica-Light" font-size="4.9389px" stroke-width=".26458" style="line-height:1.25" xml:space="preserve"><tspan x="18.135078" y="19.971651" fill="#00a3fa" font-size="4.9389px" stroke="#5c5470" stroke-width=".26458">+</tspan></text>
  </g>
 </g>
 <g transform="translate(4.8602 -.8269)" fill="none" stroke="#808080" stroke-width=".26458">
  <g stroke-linecap="round">
   <rect x="16.732" y="33.11" width="1.3229" height="3.4324" rx=".52917" ry=".52917"/>
   <rect x="16.732" y="41.283" width="1.3229" height="3.4324" rx=".52917" ry=".52917"/>
   <circle cx="24.98" cy="38.895" r="14.572"/>
   <circle cx="24.98" cy="38.895" r="2.7459"/>
   <path d="m18.592 31.279c-0.68006 0-1.2273 0.54725-1.2273 1.2273v0.60358h0.16123c0.29316 0 0.52917 0.23601 0.52917 0.52916v2.374c0 0.29316-0.23601 0.52916-0.52917 0.52916h-0.16123v4.7403h0.16123c0.29316 0 0.52917 0.23601 0.52917 0.52917v2.3745c0 0.29316-0.23601 0.52917-0.52917 0.52917h-0.16123v0.56844c5e-6 0.68006 0.54725 1.2273 1.2273 1.2273h12.778c0.68006 0 1.2273-0.54726 1.2273-1.2273v-12.778c0-0.68007-0.54725-1.2273-1.2273-1.2273z"/>
   <circle cx="24.98" cy="38.895" r="2.7459"/>
   <circle cx="24.98" cy="38.895" r="4.2425"/>
  </g>
  <g>
   <path d="m24.98 35.095v0.73343"/>
   <path d="m28.761 38.876h-0.73342"/>
   <path d="m24.98 42.657v-0.73343"/>
   <path d="m21.199 38.876h0.73342"/>
   <path d="m27.654 36.203-0.51861 0.51861"/>
   <path d="m27.654 41.55-0.51861-0.51861"/>
   <path d="m22.307 41.55 0.51861-0.51861"/>
   <path d="m22.307 36.203 0.51861 0.51861"/>
  </g>
 </g>
 <g transform="translate(-4.7971 19.944)" fill="none" stroke="#808080" stroke-width=".26458">
  <circle cx="139" cy="18.124" r="14.572" stroke-linecap="round"/>
  <g transform="translate(3.284 44.376)">
   <path d="m129.93-30.849c-2.7482 0-4.9764 2.2277-4.9764 4.9759 0 2.7482 2.2282 4.9764 4.9764 4.9764 1.8552-1e-6 3.4702-1.0176 4.3258-2.5228h1.0526c0.14658 0 0.26459-0.118 0.26459-0.26458v-4.378c0-0.14658-0.11801-0.26458-0.26459-0.26458h-1.0516c-0.8556-1.5055-2.4715-2.5223-4.3269-2.5223z" stroke-linecap="round"/>
   <path d="m135.6-27.766h9.1663l1.6642 1.6642-1.6434 1.8209-1.2516-0.47108-1.322 0.84533-1.0424-0.80551-1.2853 1.0242-1.4998-1.0853-1.5586 1.0601-1.2278-0.6627"/>
   <path d="m146.43-26.102h-10.824"/>
   <circle cx="127.73" cy="-25.952" r="1.7344" stroke-linecap="round"/>
   <path d="m145.71-26.823h-10.224"/>
  </g>
 </g>
 <g fill="none" stroke-width=".88215">
  <g transform="matrix(-.33388 .47653 -.47653 -.33388 191.72 86.064)" stroke="#5c5470">
   <path d="m105.16 192.94 3.8558 3.2396-1.9279 1.6198-1.9279 1.6198" stroke-linecap="round"/>
   <path d="m109.01 196.18h-10.266"/>
  </g>
  <g transform="matrix(-.33388 -.47653 -.47653 .33388 229.44 54.252)" stroke="#5c5470">
   <path d="m105.16 192.94 3.8558 3.2396-1.9279 1.6198-1.9279 1.6198" stroke-linecap="round"/>
   <path d="m109.01 196.18h-10.266"/>
  </g>
  <g transform="matrix(-.33388 -.47653 -.47653 .33388 168.03 54.252)" stroke="#808080">
   <path d="m105.16 192.94 3.8558 3.2396-1.9279 1.6198-1.9279 1.6198" stroke-linecap="round"/>
   <path d="m109.01 196.18h-10.266"/>
  </g>
  <g transform="matrix(.33388 -.47653 .47653 .33388 -4.9852 54.252)" stroke="#808080">
   <path d="m105.16 192.94 3.8558 3.2396-1.9279 1.6198-1.9279 1.6198" stroke-linecap="round"/>
   <path d="m109.01 196.18h-10.266"/>
  </g>
 </g>
</svg>
