<svg width="600" height="460" version="1.1" viewBox="0 0 158.75 121.71" xmlns="http://www.w3.org/2000/svg">
 <g transform="matrix(0 .58186 -.58186 0 158.44 5.5793)" fill="none" stroke="#5c5470" stroke-width=".88215">
  <path d="m105.16 192.94 3.8558 3.2396-3.8558 3.2396" stroke-linecap="round"/>
  <path d="m109.01 196.18h-10.266"/>
 </g>
 <g transform="matrix(.58186 0 0 .58186 15.592 -23.215)" fill="none" stroke="#5c5470" stroke-width=".88215">
  <path d="m105.16 192.94 3.8558 3.2396-3.8558 3.2396" stroke-linecap="round"/>
  <path d="m109.01 196.18h-10.266"/>
 </g>
 <g fill="#5c5470" font-size="5.475px" stroke-width=".25664">
  <text x="92.176018" y="113.63705" font-family="Helvetica-Light" style="line-height:1.25" xml:space="preserve"><tspan x="92.176018" y="113.63705" fill="#5c5470" font-family="Helvetica" font-size="5.475px" stroke-width=".25664">Build System</tspan></text>
  <text x="44.986317" y="113.43206" font-family="Helvetica-Light" text-align="center" text-anchor="middle" style="line-height:1.25" xml:space="preserve"><tspan x="44.986317" y="113.43206" font-family="Helvetica" text-align="center">Version-Control </tspan><tspan x="44.986317" y="120.27583" text-align="center"/></text>
  <text x="44.272533" y="48.102287" font-family="Helvetica" text-align="center" text-anchor="middle" style="line-height:1.25" xml:space="preserve"><tspan x="44.272533" y="48.102287" text-align="center">Metadata and</tspan><tspan x="44.272533" y="55.143509" text-align="center">Taxonomy</tspan></text>
 </g>
 <g stroke="#5c5470">
  <g transform="translate(17.248 2.8641)">
   <circle cx="27.048" cy="23.956" r="14.572" fill="none" stroke-linecap="round" stroke-width=".26458"/>
   <g transform="translate(-53.34 -16.017)">
    <g fill="none" stroke-width=".25664">
     <path d="m83.046 35.56v8.8373h6.3069v-6.7641h-2.2363v-2.0809z"/>
     <path d="m83.965 38.222h1.8207"/>
     <path d="m83.965 40.219h4.4764"/>
     <path d="m83.965 42.216h4.5156"/>
     <path d="m71.423 35.56v8.8373h6.3069v-6.7641h-2.2363v-2.0809z"/>
     <path d="m72.342 38.222h1.8207"/>
     <path d="m72.342 40.219h4.4764"/>
     <path d="m72.342 42.216h4.5156"/>
    </g>
    <text x="78.697113" y="41.207787" fill="#00a3fa" font-family="Helvetica-Light" font-size="4.9389px" stroke-width=".26458" style="line-height:1.25" xml:space="preserve"><tspan x="78.697113" y="41.207787" fill="#00a3fa" font-size="4.9389px" stroke="#5c5470" stroke-width=".26458">+</tspan></text>
   </g>
  </g>
  <g transform="translate(17.248 2.2517)" fill="none">
   <circle cx="27.048" cy="88.68" r="14.572" stroke-linecap="round" stroke-width=".26458"/>
   <g transform="translate(-53.13 -20.642)">
    <g stroke-width=".25664">
     <path d="m72.364 108.46v8.8373h6.3069v-6.7641h-2.2363v-2.0809z"/>
     <path d="m73.282 111.12h1.8207"/>
     <path d="m73.282 113.11h4.4764"/>
     <path d="m73.282 115.11h4.5156"/>
     <path d="m79.096 114.67h2.6694v-6.7641h-2.2363v-2.0809l-4.0706 8e-3v2.2223" opacity=".6558"/>
    </g>
    <path d="m77.202 108.5h0.99636" opacity=".6558" stroke-width=".18985"/>
    <path d="m79.134 110.49h1.7434" opacity=".6558" stroke-width=".16016"/>
    <path d="m79.134 112.49h1.7587" opacity=".6558" stroke-width=".16016"/>
    <path d="m82.182 112.05h2.6694v-6.7641h-2.2363v-2.0809l-4.0706 8e-3v2.2223" opacity=".36863" stroke-width=".25664"/>
    <path d="m80.287 105.88h0.99636" opacity=".36863" stroke-width=".18985"/>
    <path d="m82.219 107.87h1.7434" opacity=".36863" stroke-width=".16016"/>
    <path d="m82.219 109.87h1.7587" opacity=".36863" stroke-width=".16016"/>
    <path d="m85.323 109.44h2.6694v-6.7641h-2.2363v-2.0809l-4.0706 8e-3v2.2223" opacity=".15589" stroke-width=".25664"/>
    <path d="m83.428 103.26h0.99636" opacity=".15589" stroke-width=".18985"/>
    <path d="m85.361 105.26h1.7434" opacity=".15589" stroke-width=".16016"/>
    <path d="m85.361 107.26h1.7587" opacity=".15589" stroke-width=".16016"/>
   </g>
  </g>
  <g transform="translate(29.455 2.2517)" fill="none" stroke-linecap="round">
   <circle cx="78.719" cy="88.68" r="14.572" stroke-width=".26458"/>
   <path d="m78.717 79.398c-0.17047 0-0.30776 0.13729-0.30776 0.30775v0.7122a2.9289 2.9289 0 0 0-0.68477 0.28404l-0.50394-0.50393c-0.12052-0.12054-0.31459-0.12054-0.43512 0l-0.65269 0.65269c-0.12054 0.12054-0.12054 0.31462 0 0.43513l0.50392 0.50394a2.9289 2.9289 0 0 0-0.28357 0.68524h-0.71313c-0.17046 0-0.30729 0.13683-0.30729 0.30728v0.92326c0 0.17046 0.13683 0.30775 0.30729 0.30775h0.71266a2.9289 2.9289 0 0 0 0.28404 0.68524l-0.50392 0.50393c-0.12054 0.12054-0.12054 0.3146 0 0.43513l0.65269 0.65223c0.12053 0.12053 0.3146 0.12053 0.43512 0l0.50394-0.50393a2.9289 2.9289 0 0 0 0.68477 0.28404v0.71266c0 0.17047 0.13729 0.30776 0.30776 0.30776h0.92324c0.17046 0 0.30776-0.13729 0.30776-0.30776v-0.71266a2.9289 2.9289 0 0 0 0.68477-0.28358l0.50393 0.50347c0.12054 0.12053 0.31461 0.12053 0.43513 0l0.6527-0.65223c0.12053-0.12053 0.12053-0.31459 0-0.43513l-0.50347-0.50393a2.9289 2.9289 0 0 0 0.28358-0.68524h0.7122c0.17046 0 0.30775-0.13729 0.30775-0.30775v-0.92326c0-0.17045-0.13729-0.30728-0.30775-0.30728h-0.7122a2.9289 2.9289 0 0 0-0.28404-0.68524l0.50393-0.50394c0.12053-0.12053 0.12053-0.31459 0-0.43513l-0.6527-0.65269c-0.12052-0.12054-0.31459-0.12054-0.43513 0l-0.50393 0.50347a2.9289 2.9289 0 0 0-0.68477-0.28358v-0.7122c0-0.17046-0.1373-0.30775-0.30776-0.30775zm0.4579 2.1366a1.7097 1.7097 0 0 1 4e-3 0 1.7097 1.7097 0 0 1 1.7098 1.7094 1.7097 1.7097 0 0 1-1.7098 1.7098 1.7097 1.7097 0 0 1-1.7098-1.7098 1.7097 1.7097 0 0 1 1.7061-1.7094z" stroke-width=".23802"/>
   <path d="m75.517 87.58c-0.20568 0-0.37132 0.16565-0.37132 0.37131v0.8593a3.5338 3.5338 0 0 0-0.82677 0.34271l-0.60801-0.60802c-0.14542-0.14543-0.37901-0.14543-0.52444 0l-0.7875 0.78751c-0.14543 0.14542-0.14543 0.37959 0 0.525l0.60801 0.60801a3.5338 3.5338 0 0 0-0.3427 0.8262h-0.85986c-0.20566 0-0.37131 0.16565-0.37131 0.37132v1.1139c0 0.20567 0.16565 0.37131 0.37131 0.37131h0.85986a3.5338 3.5338 0 0 0 0.3427 0.82621l-0.60801 0.60801c-0.14543 0.14544-0.14543 0.37957 0 0.525l0.7875 0.7875c0.14543 0.14542 0.37902 0.14542 0.52444 0l0.60801-0.60801a3.5338 3.5338 0 0 0 0.82677 0.34271v0.85985c0 0.20567 0.16564 0.37075 0.37132 0.37075h1.1139c0.20566 0 0.37076-0.16508 0.37076-0.37075v-0.85985a3.5338 3.5338 0 0 0 0.82677-0.34215l0.60745 0.60745c0.14543 0.14542 0.38013 0.14542 0.52555 0l0.7875-0.7875c0.14543-0.14543 0.14543-0.37956 0-0.525l-0.60745-0.60745a3.5338 3.5338 0 0 0 0.34215-0.82677h0.8593c0.20567 0 0.37131-0.16564 0.37131-0.37131v-1.1139c0-0.20567-0.16564-0.37132-0.37131-0.37132h-0.8593a3.5338 3.5338 0 0 0-0.34271-0.8262l0.60801-0.60801c0.14543-0.14543 0.14543-0.37958 0-0.525l-0.7875-0.78751c-0.14542-0.14543-0.38012-0.14543-0.52555 0l-0.60745 0.60746a3.5338 3.5338 0 0 0-0.82677-0.34215v-0.8593c0-0.20566-0.1651-0.37131-0.37076-0.37131zm0.55248 2.5773a2.0629 2.0629 0 0 1 5e-3 0 2.0629 2.0629 0 0 1 2.0624 2.063 2.0629 2.0629 0 0 1-2.0624 2.063 2.0629 2.0629 0 0 1-2.063-2.063 2.0629 2.0629 0 0 1 2.0585-2.063z" stroke-width=".28718"/>
   <path d="m84.155 87.681c-0.10256 0-0.18516 0.0826-0.18516 0.18515v0.42848a1.7621 1.7621 0 0 0-0.41198 0.17089l-0.30317-0.30318c-0.0726-0.0725-0.18928-0.0725-0.26179 0l-0.39268 0.39268c-0.0726 0.0725-0.0726 0.18928 0 0.26179l0.30318 0.30317a1.7621 1.7621 0 0 0-0.17061 0.41226h-0.42904c-0.10254 0-0.18487 0.0823-0.18487 0.18487v0.55546c0 0.10255 0.0824 0.18515 0.18487 0.18515h0.42876a1.7621 1.7621 0 0 0 0.17089 0.41226l-0.30318 0.30318c-0.0726 0.0725-0.0726 0.18927 0 0.26178l0.39268 0.3924c0.0726 0.0725 0.18927 0.0725 0.26179 0l0.30317-0.30318a1.7621 1.7621 0 0 0 0.41198 0.17089v0.42876c0 0.10256 0.0826 0.18515 0.18516 0.18515h0.55545c0.10254 0 0.18515-0.0826 0.18515-0.18515v-0.42876a1.7621 1.7621 0 0 0 0.41198-0.17061l0.30318 0.3029c0.0726 0.0725 0.18927 0.0725 0.26177 0l0.39268-0.3924c0.0726-0.0725 0.0726-0.18926 0-0.26178l-0.30289-0.30318a1.7621 1.7621 0 0 0 0.17061-0.41226h0.42848c0.10255 0 0.18515-0.0826 0.18515-0.18515v-0.55546c0-0.10255-0.0827-0.18487-0.18515-0.18487h-0.42848a1.7621 1.7621 0 0 0-0.1709-0.41226l0.30318-0.30317c0.0726-0.0725 0.0726-0.18927 0-0.26179l-0.39268-0.39268c-0.0726-0.0725-0.18926-0.0725-0.26177 0l-0.30318 0.3029a1.7621 1.7621 0 0 0-0.41198-0.17061v-0.42848c0-0.10254-0.0827-0.18515-0.18515-0.18515zm0.27548 1.2854a1.0286 1.0286 0 0 1 2e-3 0 1.0286 1.0286 0 0 1 1.0287 1.0284 1.0286 1.0286 0 0 1-1.0287 1.0287 1.0286 1.0286 0 0 1-1.0287-1.0287 1.0286 1.0286 0 0 1 1.0264-1.0284z" stroke-width=".1432"/>
   <circle cx="76.086" cy="92.207" r="2.6151" stroke-width=".26458"/>
   <circle cx="79.169" cy="83.246" r="2.1158" stroke-width=".21407"/>
   <circle cx="84.431" cy="90.001" r="1.2489" stroke-width=".12635"/>
  </g>
 </g>
 <text x="98.804558" y="49.625343" fill="#5c5470" font-family="Helvetica-Light" font-size="5.475px" stroke-width=".25664" style="line-height:1.25" xml:space="preserve"><tspan x="98.804558" y="49.625343" fill="#5c5470" font-family="Helvetica" font-size="5.475px" stroke-width=".25664">Catalog</tspan></text>
 <g transform="translate(18.837 1.6393)" fill="none" stroke="#5c5470">
  <g stroke-linecap="round">
   <circle cx="89.338" cy="25.18" r="14.572" stroke-width=".26458"/>
   <path d="m84.884 23.421 1.7927 2.2549 3.4634-3.5192" stroke-width=".52917"/>
   <circle cx="87.512" cy="23.884" r="5.5178" stroke-width=".26458"/>
   <rect transform="rotate(-45)" x="43.807" y="84.37" width="2.6587" height="5.9018" rx=".52917" ry=".52917" stroke-width=".26458"/>
   <circle cx="87.512" cy="23.884" r="4.9381" stroke-width=".27895"/>
  </g>
  <path d="m92.168 28.705 2.9885 2.9885" stroke-width=".26458px"/>
 </g>
 <text x="82.757622" y="19.953192" font-family="Helvetica-Light" font-size="5.475px" stroke-width=".25664" style="line-height:1.25" xml:space="preserve"><tspan x="82.757622" y="19.953192" font-family="Helvetica" font-size="5.475px" stroke-width=".25664"/></text>
 <g transform="matrix(0 -.58186 -.58186 0 222.32 126.87)" fill="none" stroke="#5c5470" stroke-width=".88215">
  <path d="m105.16 192.94 3.8558 3.2396-3.8558 3.2396" stroke-linecap="round"/>
  <path d="m109.01 196.18h-10.266"/>
 </g>
 <g transform="matrix(-.58186 0 0 .58186 136.88 -87.327)" fill="none" stroke="#5c5470" stroke-width=".88215">
  <path d="m105.16 192.94 3.8558 3.2396-3.8558 3.2396" stroke-linecap="round"/>
  <path d="m109.01 196.18h-10.266"/>
 </g>
</svg>
