<?xml version="1.0" encoding="UTF-8" standalone="no"?>
<svg
   width="600"
   height="460"
   viewBox="0 0 158.75001 121.70824"
   version="1.1"
   id="svg43558"
   inkscape:version="1.1.1 (50ffc5b540, 2022-01-11)"
   sodipodi:docname="buildsystem-workflow-illustration.svg"
   xmlns:inkscape="http://www.inkscape.org/namespaces/inkscape"
   xmlns:sodipodi="http://sodipodi.sourceforge.net/DTD/sodipodi-0.dtd"
   xmlns="http://www.w3.org/2000/svg"
   xmlns:svg="http://www.w3.org/2000/svg"
   xmlns:rdf="http://www.w3.org/1999/02/22-rdf-syntax-ns#"
   xmlns:cc="http://creativecommons.org/ns#"
   xmlns:dc="http://purl.org/dc/elements/1.1/">
  <defs
     id="defs43552" />
  <sodipodi:namedview
     id="base"
     pagecolor="#ffffff"
     bordercolor="#666666"
     borderopacity="1.0"
     inkscape:pageopacity="0.0"
     inkscape:pageshadow="2"
     inkscape:zoom="1.0304422"
     inkscape:cx="181.47549"
     inkscape:cy="270.27232"
     inkscape:document-units="px"
     inkscape:current-layer="layer1"
     inkscape:document-rotation="0"
     showgrid="false"
     units="px"
     inkscape:window-width="3072"
     inkscape:window-height="1580"
     inkscape:window-x="0"
     inkscape:window-y="27"
     inkscape:window-maximized="1"
     showguides="true"
     inkscape:pagecheckerboard="0" />
  <metadata
     id="metadata43555">
    <rdf:RDF>
      <cc:Work
         rdf:about="">
        <dc:format>image/svg+xml</dc:format>
        <dc:type
           rdf:resource="http://purl.org/dc/dcmitype/StillImage" />
      </cc:Work>
    </rdf:RDF>
  </metadata>
  <g
     inkscape:label="Layer 1"
     inkscape:groupmode="layer"
     id="layer1">
    <g
       id="g10245-9-6-2-9-8"
       transform="matrix(0,0.58185658,-0.58185658,0,158.44167,5.5792872)"
       style="display:inline;fill:none;stroke:#5c5470;stroke-width:0.882146;stroke-miterlimit:4;stroke-dasharray:none">
      <path
         id="path10227-42-4-8-2-9"
         style="fill:none;fill-opacity:1;stroke:#5c5470;stroke-width:0.882146;stroke-linecap:round;stroke-miterlimit:4;stroke-dasharray:none"
         inkscape:transform-center-x="-0.64263863"
         inkscape:transform-center-y="-2.5216306e-06"
         d="m 105.15822,192.93656 1.92792,1.61982 1.92792,1.61981 -1.92792,1.61982 -1.92792,1.61981"
         sodipodi:nodetypes="ccccc" />
      <path
         style="fill:none;stroke:#5c5470;stroke-width:0.882146;stroke-linecap:butt;stroke-linejoin:miter;stroke-miterlimit:4;stroke-dasharray:none;stroke-opacity:1"
         d="M 109.01406,196.17619 H 98.748092"
         id="path10241-2-1-8-8-3" />
    </g>
    <g
       id="g10245-9-6-2-9-8-7"
       transform="matrix(0.58185658,0,0,0.58185658,15.591588,-23.214947)"
       style="display:inline;fill:none;stroke:#5c5470;stroke-width:0.882146;stroke-miterlimit:4;stroke-dasharray:none">
      <path
         id="path10227-42-4-8-2-9-2"
         style="fill:none;fill-opacity:1;stroke:#5c5470;stroke-width:0.882146;stroke-linecap:round;stroke-miterlimit:4;stroke-dasharray:none"
         inkscape:transform-center-x="-0.64263863"
         inkscape:transform-center-y="-2.5216306e-06"
         d="m 105.15822,192.93656 1.92792,1.61982 1.92792,1.61981 -1.92792,1.61982 -1.92792,1.61981"
         sodipodi:nodetypes="ccccc" />
      <path
         style="fill:none;stroke:#5c5470;stroke-width:0.882146;stroke-linecap:butt;stroke-linejoin:miter;stroke-miterlimit:4;stroke-dasharray:none;stroke-opacity:1"
         d="M 109.01406,196.17619 H 98.748092"
         id="path10241-2-1-8-8-3-7" />
    </g>
    <text
       xml:space="preserve"
       style="font-size:5.47501px;line-height:1.25;font-family:Helvetica-Light;-inkscape-font-specification:'Helvetica-Light, Normal';display:inline;stroke-width:0.256641;fill:#5c5470"
       x="92.176018"
       y="113.63705"
       id="text42556-0"><tspan
         sodipodi:role="line"
         id="tspan42554-1"
         x="92.176018"
         y="113.63705"
         style="font-style:normal;font-variant:normal;font-weight:normal;font-stretch:normal;font-size:5.47501px;font-family:Helvetica;-inkscape-font-specification:Helvetica;stroke-width:0.256641;fill:#5c5470">Build System</tspan></text>
    <text
       xml:space="preserve"
       style="font-size:5.47501px;line-height:1.25;font-family:Helvetica-Light;-inkscape-font-specification:'Helvetica-Light, Normal';text-align:center;text-anchor:middle;display:inline;stroke-width:0.256641;fill:#5c5470"
       x="44.986317"
       y="113.43206"
       id="text42556-0-9"><tspan
         sodipodi:role="line"
         id="tspan42554-1-9"
         x="44.986317"
         y="113.43206"
         style="font-style:normal;font-variant:normal;font-weight:normal;font-stretch:normal;font-size:5.47501px;font-family:Helvetica;-inkscape-font-specification:Helvetica;text-align:center;text-anchor:middle;stroke-width:0.256641;fill:#5c5470">Version-Control </tspan><tspan
         sodipodi:role="line"
         x="44.986317"
         y="120.27583"
         style="font-size:5.47501px;text-align:center;text-anchor:middle;stroke-width:0.256641;fill:#5c5470"
         id="tspan42768" /></text>
    <text
       xml:space="preserve"
       style="font-size:5.47501px;line-height:1.25;font-family:Helvetica-Light;-inkscape-font-specification:'Helvetica-Light, Normal';text-align:center;text-anchor:middle;display:inline;stroke-width:0.256641;fill:#5c5470"
       x="44.272533"
       y="48.102287"
       id="text42556-0-9-0"><tspan
         sodipodi:role="line"
         x="44.272533"
         y="48.102287"
         style="font-style:normal;font-variant:normal;font-weight:normal;font-stretch:normal;font-size:5.47501px;font-family:Helvetica;-inkscape-font-specification:Helvetica;text-align:center;text-anchor:middle;stroke-width:0.256641;fill:#5c5470"
         id="tspan42768-8">Metadata and</tspan><tspan
         sodipodi:role="line"
         x="44.272533"
         y="55.143509"
         style="font-style:normal;font-variant:normal;font-weight:normal;font-stretch:normal;font-size:5.47501px;font-family:Helvetica;-inkscape-font-specification:Helvetica;text-align:center;text-anchor:middle;stroke-width:0.256641;fill:#5c5470"
         id="tspan43320">Taxonomy</tspan></text>
    <g
       id="g52514"
       transform="translate(17.247509,2.8640999)"
       style="stroke:#5c5470">
      <circle
         style="display:inline;fill:none;stroke:#5c5470;stroke-width:0.264583;stroke-linecap:round;stroke-miterlimit:4;stroke-dasharray:none"
         id="path42346"
         cx="27.04775"
         cy="23.955631"
         r="14.571728" />
      <g
         id="g1420"
         transform="translate(-53.340417,-16.017455)"
         style="stroke:#5c5470">
        <path
           style="display:inline;fill:none;stroke:#5c5470;stroke-width:0.256641;stroke-linecap:butt;stroke-linejoin:miter;stroke-miterlimit:4;stroke-dasharray:none;stroke-opacity:1"
           d="m 83.045998,35.560498 v 8.83726 h 6.306925 v -6.76411 h -2.236275 v -2.0809 z"
           id="path42770-9-6-4" />
        <path
           style="display:inline;fill:none;stroke:#5c5470;stroke-width:0.256641;stroke-linecap:butt;stroke-linejoin:miter;stroke-miterlimit:4;stroke-dasharray:none;stroke-opacity:1"
           d="m 83.964533,38.222108 h 1.820668"
           id="path42847-3-4" />
        <path
           style="display:inline;fill:none;stroke:#5c5470;stroke-width:0.256641;stroke-linecap:butt;stroke-linejoin:miter;stroke-miterlimit:4;stroke-dasharray:none;stroke-opacity:1"
           d="m 83.964533,40.218998 h 4.476385"
           id="path42849-0-5" />
        <path
           style="display:inline;fill:none;stroke:#5c5470;stroke-width:0.256641;stroke-linecap:butt;stroke-linejoin:miter;stroke-miterlimit:4;stroke-dasharray:none;stroke-opacity:1"
           d="m 83.964533,42.215878 h 4.515638"
           id="path42851-5-8" />
        <path
           style="display:inline;fill:none;stroke:#5c5470;stroke-width:0.256641;stroke-linecap:butt;stroke-linejoin:miter;stroke-miterlimit:4;stroke-dasharray:none;stroke-opacity:1"
           d="m 71.423404,35.560498 v 8.83726 h 6.306927 v -6.76411 h -2.236277 v -2.0809 z"
           id="path42770-9-6-4-1" />
        <path
           style="display:inline;fill:none;stroke:#5c5470;stroke-width:0.256641;stroke-linecap:butt;stroke-linejoin:miter;stroke-miterlimit:4;stroke-dasharray:none;stroke-opacity:1"
           d="m 72.341939,38.222108 h 1.820669"
           id="path42847-3-4-9" />
        <path
           style="display:inline;fill:none;stroke:#5c5470;stroke-width:0.256641;stroke-linecap:butt;stroke-linejoin:miter;stroke-miterlimit:4;stroke-dasharray:none;stroke-opacity:1"
           d="m 72.341939,40.218998 h 4.476384"
           id="path42849-0-5-6" />
        <path
           style="display:inline;fill:none;stroke:#5c5470;stroke-width:0.256641;stroke-linecap:butt;stroke-linejoin:miter;stroke-miterlimit:4;stroke-dasharray:none;stroke-opacity:1"
           d="m 72.341939,42.215878 h 4.51564"
           id="path42851-5-8-7" />
        <text
           xml:space="preserve"
           style="font-size:4.93889px;line-height:1.25;font-family:Helvetica-Light;-inkscape-font-specification:'Helvetica-Light, Normal';fill:#00a3fa;fill-opacity:1;stroke-width:0.264583;stroke:#5c5470"
           x="78.697113"
           y="41.207787"
           id="text14417"><tspan
             sodipodi:role="line"
             id="tspan14415"
             x="78.697113"
             y="41.207787"
             style="font-size:4.93889px;fill:#00a3fa;fill-opacity:1;stroke-width:0.264583;stroke:#5c5470">+</tspan></text>
      </g>
    </g>
    <g
       id="g52491"
       transform="translate(17.247509,2.2516765)"
       style="stroke:#5c5470">
      <circle
         style="display:inline;fill:none;stroke:#5c5470;stroke-width:0.264583;stroke-linecap:round;stroke-miterlimit:4;stroke-dasharray:none"
         id="path42346-6"
         cx="27.04775"
         cy="88.679802"
         r="14.571728" />
      <g
         id="g1408"
         transform="translate(-53.130402,-20.642022)"
         style="stroke:#5c5470">
        <path
           style="display:inline;fill:none;stroke:#5c5470;stroke-width:0.256641;stroke-linecap:butt;stroke-linejoin:miter;stroke-miterlimit:4;stroke-dasharray:none;stroke-opacity:1"
           d="m 72.363916,108.45561 v 8.83726 h 6.30692 v -6.76411 h -2.23627 v -2.0809 z"
           id="path42770-9-6-4-0" />
        <path
           style="display:inline;fill:none;stroke:#5c5470;stroke-width:0.256641;stroke-linecap:butt;stroke-linejoin:miter;stroke-miterlimit:4;stroke-dasharray:none;stroke-opacity:1"
           d="m 73.282446,111.11722 h 1.82067"
           id="path42847-3-4-97" />
        <path
           style="display:inline;fill:none;stroke:#5c5470;stroke-width:0.256641;stroke-linecap:butt;stroke-linejoin:miter;stroke-miterlimit:4;stroke-dasharray:none;stroke-opacity:1"
           d="m 73.282446,113.11411 h 4.47639"
           id="path42849-0-5-66" />
        <path
           style="display:inline;fill:none;stroke:#5c5470;stroke-width:0.256641;stroke-linecap:butt;stroke-linejoin:miter;stroke-miterlimit:4;stroke-dasharray:none;stroke-opacity:1"
           d="m 73.282446,115.11099 h 4.51564"
           id="path42851-5-8-8" />
        <path
           style="display:inline;opacity:0.655803;fill:none;stroke:#5c5470;stroke-width:0.256641;stroke-linecap:butt;stroke-linejoin:miter;stroke-miterlimit:4;stroke-dasharray:none;stroke-opacity:1"
           d="m 79.096498,114.67158 h 2.669351 v -6.76411 h -2.23627 v -2.0809 l -4.07065,0.008 v 2.22233"
           id="path42770-9-6-4-0-8-6-7"
           sodipodi:nodetypes="ccccccc" />
        <path
           style="display:inline;opacity:0.655803;fill:none;stroke:#5c5470;stroke-width:0.189853;stroke-linecap:butt;stroke-linejoin:miter;stroke-miterlimit:4;stroke-dasharray:none;stroke-opacity:1"
           d="m 77.20178,108.49593 h 0.996359"
           id="path42847-3-4-97-2-7-8" />
        <path
           style="display:inline;opacity:0.655803;fill:none;stroke:#5c5470;stroke-width:0.160163;stroke-linecap:butt;stroke-linejoin:miter;stroke-miterlimit:4;stroke-dasharray:none;stroke-opacity:1"
           d="m 79.134392,110.49282 h 1.743424"
           id="path42849-0-5-66-9-6-6" />
        <path
           style="display:inline;opacity:0.655803;fill:none;stroke:#5c5470;stroke-width:0.160163;stroke-linecap:butt;stroke-linejoin:miter;stroke-miterlimit:4;stroke-dasharray:none;stroke-opacity:1"
           d="m 79.134392,112.4897 h 1.758707"
           id="path42851-5-8-8-5-7-8" />
        <path
           style="display:inline;opacity:0.368627;fill:none;stroke:#5c5470;stroke-width:0.256641;stroke-linecap:butt;stroke-linejoin:miter;stroke-miterlimit:4;stroke-dasharray:none;stroke-opacity:1"
           d="m 82.1816,112.05096 h 2.669351 v -6.7641 h -2.23627 v -2.08091 l -4.07065,0.008 v 2.22233"
           id="path14540"
           sodipodi:nodetypes="ccccccc" />
        <path
           style="display:inline;opacity:0.368627;fill:none;stroke:#5c5470;stroke-width:0.189853;stroke-linecap:butt;stroke-linejoin:miter;stroke-miterlimit:4;stroke-dasharray:none;stroke-opacity:1"
           d="m 80.286882,105.87532 h 0.996359"
           id="path14542" />
        <path
           style="display:inline;opacity:0.368627;fill:none;stroke:#5c5470;stroke-width:0.160163;stroke-linecap:butt;stroke-linejoin:miter;stroke-miterlimit:4;stroke-dasharray:none;stroke-opacity:1"
           d="m 82.219494,107.8722 h 1.743424"
           id="path14544" />
        <path
           style="display:inline;opacity:0.368627;fill:none;stroke:#5c5470;stroke-width:0.160163;stroke-linecap:butt;stroke-linejoin:miter;stroke-miterlimit:4;stroke-dasharray:none;stroke-opacity:1"
           d="m 82.219494,109.86909 h 1.758707"
           id="path14546" />
        <path
           style="display:inline;opacity:0.155893;fill:none;stroke:#5c5470;stroke-width:0.256641;stroke-linecap:butt;stroke-linejoin:miter;stroke-miterlimit:4;stroke-dasharray:none;stroke-opacity:1"
           d="m 85.32303,109.44 h 2.669351 v -6.76412 h -2.23627 v -2.0809 l -4.07065,0.008 v 2.22233"
           id="path14548"
           sodipodi:nodetypes="ccccccc" />
        <path
           style="display:inline;opacity:0.155893;fill:none;stroke:#5c5470;stroke-width:0.189853;stroke-linecap:butt;stroke-linejoin:miter;stroke-miterlimit:4;stroke-dasharray:none;stroke-opacity:1"
           d="m 83.428312,103.26435 h 0.996359"
           id="path14550" />
        <path
           style="display:inline;opacity:0.155893;fill:none;stroke:#5c5470;stroke-width:0.160163;stroke-linecap:butt;stroke-linejoin:miter;stroke-miterlimit:4;stroke-dasharray:none;stroke-opacity:1"
           d="m 85.360924,105.26123 h 1.743424"
           id="path14552" />
        <path
           style="display:inline;opacity:0.155893;fill:none;stroke:#5c5470;stroke-width:0.160163;stroke-linecap:butt;stroke-linejoin:miter;stroke-miterlimit:4;stroke-dasharray:none;stroke-opacity:1"
           d="m 85.360924,107.25812 h 1.758707"
           id="path14554" />
      </g>
    </g>
    <g
       id="g52500"
       transform="translate(29.455434,2.2516765)"
       style="stroke:#5c5470">
      <circle
         style="display:inline;fill:none;stroke:#5c5470;stroke-width:0.264583;stroke-linecap:round;stroke-miterlimit:4;stroke-dasharray:none"
         id="path42346-6-8"
         cx="78.719215"
         cy="88.679802"
         r="14.571728" />
      <path
         id="path42578-1-5"
         style="display:inline;fill:none;stroke:#5c5470;stroke-width:0.238019;stroke-linecap:round;stroke-miterlimit:4;stroke-dasharray:none;stroke-opacity:1"
         d="m 78.716648,79.397732 c -0.17047,0 -0.30776,0.13729 -0.30776,0.30775 v 0.7122 a 2.9289039,2.9289039 0 0 0 -0.68477,0.28404 l -0.50394,-0.50393 c -0.12052,-0.12054 -0.31459,-0.12054 -0.43512,0 l -0.65269,0.65269 c -0.12054,0.12054 -0.12054,0.31462 0,0.43513 l 0.50392,0.50394 a 2.9289039,2.9289039 0 0 0 -0.28357,0.68524 h -0.71313 c -0.17046,0 -0.30729,0.13683 -0.30729,0.30728 v 0.92326 c 0,0.17046 0.13683,0.30775 0.30729,0.30775 h 0.71266 a 2.9289039,2.9289039 0 0 0 0.28404,0.68524 l -0.50392,0.50393 c -0.12054,0.12054 -0.12054,0.3146 0,0.43513 l 0.65269,0.65223 c 0.12053,0.12053 0.3146,0.12053 0.43512,0 l 0.50394,-0.50393 a 2.9289039,2.9289039 0 0 0 0.68477,0.28404 v 0.71266 c 0,0.17047 0.13729,0.30776 0.30776,0.30776 h 0.92324 c 0.17046,0 0.30776,-0.13729 0.30776,-0.30776 v -0.71266 a 2.9289039,2.9289039 0 0 0 0.68477,-0.28358 l 0.50393,0.50347 c 0.12054,0.12053 0.31461,0.12053 0.43513,0 l 0.6527,-0.65223 c 0.12053,-0.12053 0.12053,-0.31459 0,-0.43513 l -0.50347,-0.50393 a 2.9289039,2.9289039 0 0 0 0.28358,-0.68524 h 0.7122 c 0.17046,0 0.30775,-0.13729 0.30775,-0.30775 v -0.92326 c 0,-0.17045 -0.13729,-0.30728 -0.30775,-0.30728 h -0.7122 a 2.9289039,2.9289039 0 0 0 -0.28404,-0.68524 l 0.50393,-0.50394 c 0.12053,-0.12053 0.12053,-0.31459 0,-0.43513 l -0.6527,-0.65269 c -0.12052,-0.12054 -0.31459,-0.12054 -0.43513,0 l -0.50393,0.50347 a 2.9289039,2.9289039 0 0 0 -0.68477,-0.28358 v -0.7122 c 0,-0.17046 -0.1373,-0.30775 -0.30776,-0.30775 z m 0.4579,2.1366 a 1.7097285,1.7097285 0 0 1 0.004,0 1.7097285,1.7097285 0 0 1 1.70984,1.70937 1.7097285,1.7097285 0 0 1 -1.70981,1.70984 1.7097285,1.7097285 0 0 1 -1.70983,-1.70984 1.7097285,1.7097285 0 0 1 1.70612,-1.70937 z" />
      <path
         id="path42578-1-3-1"
         style="display:inline;fill:none;stroke:#5c5470;stroke-width:0.287179;stroke-linecap:round;stroke-miterlimit:4;stroke-dasharray:none;stroke-opacity:1"
         d="m 75.516828,87.579522 c -0.20568,0 -0.37132,0.16565 -0.37132,0.37131 v 0.8593 a 3.5338345,3.5338345 0 0 0 -0.82677,0.34271 l -0.60801,-0.60802 c -0.14542,-0.14543 -0.37901,-0.14543 -0.52444,0 l -0.7875,0.78751 c -0.14543,0.14542 -0.14543,0.37959 0,0.525 l 0.60801,0.60801 a 3.5338345,3.5338345 0 0 0 -0.3427,0.8262 h -0.85986 c -0.20566,0 -0.37131,0.16565 -0.37131,0.37132 v 1.11394 c 0,0.20567 0.16565,0.37131 0.37131,0.37131 h 0.85986 a 3.5338345,3.5338345 0 0 0 0.3427,0.82621 l -0.60801,0.60801 c -0.14543,0.14544 -0.14543,0.37957 0,0.525 l 0.7875,0.7875 c 0.14543,0.14542 0.37902,0.14542 0.52444,0 l 0.60801,-0.60801 a 3.5338345,3.5338345 0 0 0 0.82677,0.34271 v 0.85985 c 0,0.20567 0.16564,0.37075 0.37132,0.37075 h 1.11393 c 0.20566,0 0.37076,-0.16508 0.37076,-0.37075 v -0.85985 a 3.5338345,3.5338345 0 0 0 0.82677,-0.34215 l 0.60745,0.60745 c 0.14543,0.14542 0.38013,0.14542 0.52555,0 l 0.7875,-0.7875 c 0.14543,-0.14543 0.14543,-0.37956 0,-0.525 l -0.60745,-0.60745 a 3.5338345,3.5338345 0 0 0 0.34215,-0.82677 h 0.8593 c 0.20567,0 0.37131,-0.16564 0.37131,-0.37131 v -1.11394 c 0,-0.20567 -0.16564,-0.37132 -0.37131,-0.37132 h -0.8593 a 3.5338345,3.5338345 0 0 0 -0.34271,-0.8262 l 0.60801,-0.60801 c 0.14543,-0.14543 0.14543,-0.37958 0,-0.525 l -0.7875,-0.78751 c -0.14542,-0.14543 -0.38012,-0.14543 -0.52555,0 l -0.60745,0.60746 a 3.5338345,3.5338345 0 0 0 -0.82677,-0.34215 v -0.8593 c 0,-0.20566 -0.1651,-0.37131 -0.37076,-0.37131 z m 0.55248,2.57733 a 2.062853,2.062853 0 0 1 0.005,0 2.062853,2.062853 0 0 1 2.06242,2.06298 2.062853,2.062853 0 0 1 -2.06242,2.06298 2.062853,2.062853 0 0 1 -2.06299,-2.06298 2.062853,2.062853 0 0 1 2.0585,-2.06298 z" />
      <path
         id="path42578-1-9"
         style="display:inline;fill:none;stroke:#5c5470;stroke-width:0.143199;stroke-linecap:round;stroke-miterlimit:4;stroke-dasharray:none;stroke-opacity:1"
         d="m 84.154848,87.681212 c -0.10256,0 -0.18516,0.0826 -0.18516,0.18515 v 0.42848 a 1.7621065,1.7621065 0 0 0 -0.41198,0.17089 l -0.30317,-0.30318 c -0.0726,-0.0725 -0.18928,-0.0725 -0.26179,0 l -0.39268,0.39268 c -0.0726,0.0725 -0.0726,0.18928 0,0.26179 l 0.30318,0.30317 a 1.7621065,1.7621065 0 0 0 -0.17061,0.41226 h -0.42904 c -0.10254,0 -0.18487,0.0823 -0.18487,0.18487 v 0.55546 c 0,0.10255 0.0824,0.18515 0.18487,0.18515 h 0.42876 a 1.7621065,1.7621065 0 0 0 0.17089,0.41226 l -0.30318,0.30318 c -0.0726,0.0725 -0.0726,0.18927 0,0.26178 l 0.39268,0.3924 c 0.0726,0.0725 0.18927,0.0725 0.26179,0 l 0.30317,-0.30318 a 1.7621065,1.7621065 0 0 0 0.41198,0.17089 v 0.42876 c 0,0.10256 0.0826,0.18515 0.18516,0.18515 h 0.55545 c 0.10254,0 0.18515,-0.0826 0.18515,-0.18515 v -0.42876 a 1.7621065,1.7621065 0 0 0 0.41198,-0.17061 l 0.30318,0.3029 c 0.0726,0.0725 0.18927,0.0725 0.26177,0 l 0.39268,-0.3924 c 0.0726,-0.0725 0.0726,-0.18926 0,-0.26178 l -0.30289,-0.30318 a 1.7621065,1.7621065 0 0 0 0.17061,-0.41226 h 0.42848 c 0.10255,0 0.18515,-0.0826 0.18515,-0.18515 v -0.55546 c 0,-0.10255 -0.0827,-0.18487 -0.18515,-0.18487 h -0.42848 a 1.7621065,1.7621065 0 0 0 -0.1709,-0.41226 l 0.30318,-0.30317 c 0.0726,-0.0725 0.0726,-0.18927 0,-0.26179 l -0.39268,-0.39268 c -0.0726,-0.0725 -0.18926,-0.0725 -0.26177,0 l -0.30318,0.3029 a 1.7621065,1.7621065 0 0 0 -0.41198,-0.17061 v -0.42848 c 0,-0.10254 -0.0827,-0.18515 -0.18515,-0.18515 z m 0.27548,1.28544 a 1.0286182,1.0286182 0 0 1 0.002,0 1.0286182,1.0286182 0 0 1 1.02869,1.0284 1.0286182,1.0286182 0 0 1 -1.02869,1.02868 1.0286182,1.0286182 0 0 1 -1.02869,-1.02868 1.0286182,1.0286182 0 0 1 1.02645,-1.0284 z" />
      <circle
         style="opacity:1;fill:none;fill-opacity:1;stroke:#5c5470;stroke-width:0.264583;stroke-linecap:round"
         id="path14574"
         cx="76.085991"
         cy="92.206978"
         r="2.6150947" />
      <circle
         style="opacity:1;fill:none;fill-opacity:1;stroke:#5c5470;stroke-width:0.21407;stroke-linecap:round"
         id="circle14612"
         cx="79.169319"
         cy="83.246422"
         r="2.1158323" />
      <circle
         style="opacity:1;fill:none;fill-opacity:1;stroke:#5c5470;stroke-width:0.126354;stroke-linecap:round"
         id="circle14614"
         cx="84.430519"
         cy="90.00106"
         r="1.2488611" />
    </g>
    <text
       xml:space="preserve"
       style="font-size:5.47502px;line-height:1.25;font-family:Helvetica-Light;-inkscape-font-specification:'Helvetica-Light, Normal';display:inline;stroke-width:0.256641;fill:#5c5470"
       x="98.804558"
       y="49.625343"
       id="text42556-6"><tspan
         sodipodi:role="line"
         id="tspan42554-6"
         x="98.804558"
         y="49.625343"
         style="font-style:normal;font-variant:normal;font-weight:normal;font-stretch:normal;font-size:5.47502px;font-family:Helvetica;-inkscape-font-specification:Helvetica;stroke-width:0.256641;fill:#5c5470">Catalog</tspan></text>
    <g
       id="g52471"
       transform="translate(18.836964,1.639254)"
       style="stroke:#5c5470">
      <circle
         style="display:inline;fill:none;stroke:#5c5470;stroke-width:0.264583;stroke-linecap:round;stroke-miterlimit:4;stroke-dasharray:none"
         id="path42346-6-8-1-3"
         cx="89.337685"
         cy="25.180477"
         r="14.571729" />
      <path
         style="display:inline;fill:none;stroke:#5c5470;stroke-width:0.529167;stroke-linecap:round;stroke-linejoin:miter;stroke-miterlimit:4;stroke-dasharray:none;stroke-opacity:1"
         d="m 84.884087,23.420787 1.79268,2.25493 3.46336,-3.51918"
         id="path42543-5"
         sodipodi:nodetypes="ccc" />
      <circle
         style="opacity:1;fill:none;fill-opacity:0;stroke:#5c5470;stroke-width:0.264583;stroke-linecap:round;stroke-miterlimit:4;stroke-dasharray:none"
         id="path1991"
         cx="87.512108"
         cy="23.883907"
         r="5.5177679" />
      <rect
         style="opacity:1;fill:none;fill-opacity:0;stroke:#5c5470;stroke-width:0.264583;stroke-linecap:round;stroke-miterlimit:4;stroke-dasharray:none"
         id="rect2004"
         width="2.6586721"
         height="5.9018474"
         x="43.807369"
         y="84.370239"
         rx="0.52916676"
         ry="0.52916676"
         transform="rotate(-45)" />
      <circle
         style="opacity:1;fill:none;fill-opacity:0;stroke:#5c5470;stroke-width:0.278953;stroke-linecap:round;stroke-miterlimit:4;stroke-dasharray:none"
         id="circle2006"
         cx="87.512108"
         cy="23.883907"
         r="4.9380851" />
      <path
         style="fill:none;stroke:#5c5470;stroke-width:0.264583px;stroke-linecap:butt;stroke-linejoin:miter;stroke-opacity:1"
         d="m 92.167587,28.704937 2.98854,2.98853"
         id="path2008" />
    </g>
    <text
       xml:space="preserve"
       style="font-size:5.47501px;line-height:1.25;font-family:Helvetica-Light;-inkscape-font-specification:'Helvetica-Light, Normal';display:inline;stroke-width:0.256641"
       x="82.757622"
       y="19.953192"
       id="text42538"><tspan
         sodipodi:role="line"
         id="tspan42536"
         x="82.757622"
         y="19.953192"
         style="font-style:normal;font-variant:normal;font-weight:normal;font-stretch:normal;font-size:5.47501px;font-family:Helvetica;-inkscape-font-specification:Helvetica;stroke-width:0.256641" /></text>
    <g
       id="g52520"
       transform="matrix(0,-0.58185658,-0.58185658,0,222.32106,126.86603)"
       style="display:inline;fill:none;stroke:#5c5470;stroke-width:0.882146;stroke-miterlimit:4;stroke-dasharray:none">
      <path
         id="path52516"
         style="fill:none;fill-opacity:1;stroke:#5c5470;stroke-width:0.882146;stroke-linecap:round;stroke-miterlimit:4;stroke-dasharray:none"
         inkscape:transform-center-x="-0.64263863"
         inkscape:transform-center-y="-2.5216306e-06"
         d="m 105.15822,192.93656 1.92792,1.61982 1.92792,1.61981 -1.92792,1.61982 -1.92792,1.61981"
         sodipodi:nodetypes="ccccc" />
      <path
         style="fill:none;stroke:#5c5470;stroke-width:0.882146;stroke-linecap:butt;stroke-linejoin:miter;stroke-miterlimit:4;stroke-dasharray:none;stroke-opacity:1"
         d="M 109.01406,196.17619 H 98.748092"
         id="path52518" />
    </g>
    <g
       id="g52624"
       transform="matrix(-0.58185658,0,0,0.58185658,136.87832,-87.326678)"
       style="display:inline;fill:none;stroke:#5c5470;stroke-width:0.882146;stroke-miterlimit:4;stroke-dasharray:none">
      <path
         id="path52620"
         style="fill:none;fill-opacity:1;stroke:#5c5470;stroke-width:0.882146;stroke-linecap:round;stroke-miterlimit:4;stroke-dasharray:none"
         inkscape:transform-center-x="-0.64263863"
         inkscape:transform-center-y="-2.5216306e-06"
         d="m 105.15822,192.93656 1.92792,1.61982 1.92792,1.61981 -1.92792,1.61982 -1.92792,1.61981"
         sodipodi:nodetypes="ccccc" />
      <path
         style="fill:none;stroke:#5c5470;stroke-width:0.882146;stroke-linecap:butt;stroke-linejoin:miter;stroke-miterlimit:4;stroke-dasharray:none;stroke-opacity:1"
         d="M 109.01406,196.17619 H 98.748092"
         id="path52622" />
    </g>
  </g>
</svg>
