<svg width="620" height="510" version="1.1" viewBox="0 0 164.04 134.94" xmlns="http://www.w3.org/2000/svg">
 <g transform="translate(-30.129 -18.785)" fill="none" stroke="#5c5470">
  <g transform="translate(-51.297 93.06)">
   <g transform="matrix(.53714 0 0 .53714 122.3 13.711)" stroke-width=".52917">
    <rect x="2.0114" y=".83926" width="33.245" height="21.546" rx="1.5875" ry="1.5875" fill="none" stroke="#5c5470" stroke-linecap="round" stroke-width=".52917"/>
   </g>
   <path d="m128.43 18.635 2.3901 2.2045-2.3901 2.2045" stroke-linecap="round" stroke-width=".42636"/>
   <path d="m132.82 22.96h3.9825" stroke-linecap="round" stroke-width=".42636"/>
   <path d="m123.43 16.118h17.728v0.01912" stroke-width=".28424"/>
   <g stroke-linecap="round" stroke-width=".28424">
    <circle cx="124.66" cy="15.196" r=".34984"/>
    <circle cx="125.93" cy="15.196" r=".34984"/>
    <circle cx="127.2" cy="15.196" r=".34984"/>
   </g>
  </g>
  <circle cx="81.011" cy="113.01" r="14.572" stroke-linecap="round" stroke-width=".26458"/>
 </g>
 <g transform="matrix(.58186 0 0 .58186 21.377 -19.923)" fill="none" stroke="#5c5470" stroke-width=".88215">
  <path d="m105.16 192.94 3.8558 3.2396-3.8558 3.2396" stroke-linecap="round"/>
  <path d="m109.01 196.18h-10.266"/>
 </g>
 <g fill="#5c5470" font-size="5.475px" stroke-width=".25664">
  <text x="104.70353" y="115.46728" font-family="Helvetica-Light" style="line-height:1.25" xml:space="preserve"><tspan x="104.70353" y="115.46728" fill="#5c5470" font-family="Helvetica" font-size="5.475px" stroke-width=".25664">Catalog</tspan></text>
  <text x="50.984577" y="116.022" font-family="Helvetica-Light" text-align="center" text-anchor="middle" style="line-height:1.25" xml:space="preserve"><tspan x="50.984577" y="116.022" font-family="Helvetica" text-align="center">CLI</tspan><tspan x="50.984577" y="122.86577" text-align="center"/></text>
  <text x="81.998108" y="58.292423" font-family="Helvetica" text-align="center" text-anchor="middle" style="line-height:1.25" xml:space="preserve"><tspan x="81.998108" y="58.292423" text-align="center">Metadata and</tspan><tspan x="81.998108" y="65.333656" text-align="center">Taxonomy</tspan></text>
 </g>
 <text x="29.737646" y="58.33519" fill="#808080" font-family="Helvetica-Light" font-size="5.475px" stroke-width=".25664" text-align="center" text-anchor="middle" style="line-height:1.25" xml:space="preserve"><tspan x="29.737646" y="58.33519" font-family="Helvetica" text-align="center">Backup your files</tspan><tspan x="29.737646" y="65.178955" text-align="center"/></text>
 <g transform="translate(-24.925 31.304)" fill="none" stroke="#5c5470">
  <g stroke-linecap="round">
   <circle cx="139" cy="62.919" r="14.572" stroke-width=".26458"/>
   <path d="m134.82 61.159 1.7927 2.2549 3.4634-3.5192" stroke-width=".52917"/>
   <circle cx="137.31" cy="61.622" r="5.5178" stroke-width=".26458"/>
   <rect transform="rotate(-45)" x="52.163" y="146.1" width="2.6587" height="5.9018" rx=".52917" ry=".52917" stroke-width=".26458"/>
   <circle cx="137.31" cy="61.622" r="4.9381" stroke-width=".27895"/>
  </g>
  <path d="m141.28 66.443 2.9885 2.9885" stroke-width=".26458px"/>
 </g>
 <text x="111.50439" y="58.279049" fill="#808080" font-family="Helvetica-Light" font-size="5.475px" stroke-width=".25664" style="line-height:1.25" xml:space="preserve"><tspan x="111.50439" y="58.279049" fill="#808080" font-family="Helvetica" font-size="5.475px" stroke-width=".25664">Backup your token</tspan></text>
 <g transform="translate(3.7593 22.397)" stroke="#5c5470">
  <circle cx="78.262" cy="15.672" r="14.572" fill="none" stroke-linecap="round" stroke-width=".26458"/>
  <g transform="translate(58.435 -3.0673)">
   <g fill="none" stroke-width=".25664">
    <path d="m22.484 14.324v8.8373h6.3069v-6.7641h-2.2363v-2.0809z"/>
    <path d="m23.402 16.986h1.8207"/>
    <path d="m23.402 18.983h4.4764"/>
    <path d="m23.402 20.98h4.5156"/>
    <path d="m10.861 14.324v8.8373h6.3069v-6.7641h-2.2363v-2.0809z"/>
    <path d="m11.78 16.986h1.8207"/>
    <path d="m11.78 18.983h4.4764"/>
    <path d="m11.78 20.98h4.5156"/>
   </g>
   <text x="18.135078" y="19.971651" fill="#00a3fa" font-family="Helvetica-Light" font-size="4.9389px" stroke-width=".26458" style="line-height:1.25" xml:space="preserve"><tspan x="18.135078" y="19.971651" fill="#00a3fa" font-size="4.9389px" stroke="#5c5470" stroke-width=".26458">+</tspan></text>
  </g>
 </g>
 <g fill="none">
  <g transform="translate(4.8602 -.8269)" stroke="#808080" stroke-width=".26458">
   <g stroke-linecap="round">
    <rect x="16.732" y="33.11" width="1.3229" height="3.4324" rx=".52917" ry=".52917"/>
    <rect x="16.732" y="41.283" width="1.3229" height="3.4324" rx=".52917" ry=".52917"/>
    <circle cx="24.98" cy="38.895" r="14.572"/>
    <circle cx="24.98" cy="38.895" r="2.7459"/>
    <path d="m18.592 31.279c-0.68006 0-1.2273 0.54725-1.2273 1.2273v0.60358h0.16123c0.29316 0 0.52917 0.23601 0.52917 0.52916v2.374c0 0.29316-0.23601 0.52916-0.52917 0.52916h-0.16123v4.7403h0.16123c0.29316 0 0.52917 0.23601 0.52917 0.52917v2.3745c0 0.29316-0.23601 0.52917-0.52917 0.52917h-0.16123v0.56844c5e-6 0.68006 0.54725 1.2273 1.2273 1.2273h12.778c0.68006 0 1.2273-0.54726 1.2273-1.2273v-12.778c0-0.68007-0.54725-1.2273-1.2273-1.2273z"/>
    <circle cx="24.98" cy="38.895" r="2.7459"/>
    <circle cx="24.98" cy="38.895" r="4.2425"/>
   </g>
   <path d="m24.98 35.095v0.73343"/>
   <path d="m28.761 38.876h-0.73342"/>
   <path d="m24.98 42.657v-0.73343"/>
   <path d="m21.199 38.876h0.73342"/>
   <path d="m27.654 36.203-0.51861 0.51861"/>
   <path d="m27.654 41.55-0.51861-0.51861"/>
   <path d="m22.307 41.55 0.51861-0.51861"/>
   <path d="m22.307 36.203 0.51861 0.51861"/>
  </g>
  <g transform="translate(-4.7971 19.944)" stroke="#808080" stroke-width=".26458">
   <circle cx="139" cy="18.124" r="14.572" stroke-linecap="round"/>
   <g transform="translate(3.284 44.376)">
    <path d="m129.93-30.849c-2.7482 0-4.9764 2.2277-4.9764 4.9759s2.2282 4.9764 4.9764 4.9764c1.8552-1e-6 3.4702-1.0176 4.3258-2.5228h1.0526c0.14658 0 0.26459-0.118 0.26459-0.26458v-4.378c0-0.14658-0.11801-0.26458-0.26459-0.26458h-1.0516c-0.8556-1.5055-2.4715-2.5223-4.3269-2.5223z" stroke-linecap="round"/>
    <path d="m135.6-27.766h9.1663l1.6642 1.6642-1.6434 1.8209-1.2516-0.47108-1.322 0.84533-1.0424-0.80551-1.2853 1.0242-1.4998-1.0853-1.5586 1.0601-1.2278-0.6627"/>
    <path d="m146.43-26.102h-10.824"/>
    <circle cx="127.73" cy="-25.952" r="1.7344" stroke-linecap="round"/>
    <path d="m145.71-26.823h-10.224"/>
   </g>
  </g>
  <g stroke-width=".88215">
   <g transform="matrix(-.33388 .47653 -.47653 -.33388 191.72 86.064)" stroke="#5c5470">
    <path d="m105.16 192.94 3.8558 3.2396-3.8558 3.2396" stroke-linecap="round"/>
    <path d="m109.01 196.18h-10.266"/>
   </g>
   <g transform="matrix(-.33388 -.47653 -.47653 .33388 229.44 54.252)" stroke="#5c5470">
    <path d="m105.16 192.94 3.8558 3.2396-3.8558 3.2396" stroke-linecap="round"/>
    <path d="m109.01 196.18h-10.266"/>
   </g>
   <g transform="matrix(-.33388 -.47653 -.47653 .33388 168.03 54.252)" stroke="#808080">
    <path d="m105.16 192.94 3.8558 3.2396-3.8558 3.2396" stroke-linecap="round"/>
    <path d="m109.01 196.18h-10.266"/>
   </g>
   <g transform="matrix(.33388 -.47653 .47653 .33388 -4.9852 54.252)" stroke="#808080">
    <path d="m105.16 192.94 3.8558 3.2396-3.8558 3.2396" stroke-linecap="round"/>
    <path d="m109.01 196.18h-10.266"/>
   </g>
  </g>
 </g>
</svg>
