<svg width="800" height="400" version="1.1" viewBox="0 0 211.67 105.83" xmlns="http://www.w3.org/2000/svg">
 <text x="175.70186" y="93.844513" fill="#5c5470" font-family="Helvetica-Light" font-size="5.475px" stroke-width=".25664" text-align="center" text-anchor="middle" style="line-height:1.25" xml:space="preserve"><tspan x="175.70186" y="93.844513" fill="#5c5470" font-family="Helvetica" font-size="5.475px" stroke-width=".25664" text-align="center" text-anchor="middle">metadata.apimap</tspan></text>
 <g transform="translate(140.34 52.64)" fill="none" stroke="#5c5470">
  <circle cx="35.436" cy="19.469" r="14.572" stroke-linecap="round" stroke-width=".26458"/>
  <g transform="translate(119.5 -14.652)" stroke-width=".25664">
   <path d="m-87.217 29.707v8.8373h6.3069v-6.7641h-2.2363v-2.0809z"/>
   <path d="m-86.299 32.368h1.8207"/>
   <path d="m-86.299 34.365h4.4764"/>
   <path d="m-86.299 36.362h4.5156"/>
  </g>
 </g>
 <g transform="translate(2.3309 2.9684)" fill="none" stroke="#5c5470">
  <circle cx="173.44" cy="19.469" r="14.572" stroke-linecap="round" stroke-width=".26458"/>
  <g transform="translate(257.51 -14.652)" stroke-width=".25664">
   <path d="m-87.217 29.707v8.8373h6.3069v-6.7641h-2.2363v-2.0809z"/>
   <path d="m-86.299 32.368h1.8207"/>
   <path d="m-86.299 34.365h4.4764"/>
   <path d="m-86.299 36.362h4.5156"/>
  </g>
 </g>
 <text x="175.84756" y="42.989265" fill="#5c5470" font-family="Helvetica-Light" font-size="5.475px" stroke-width=".25664" text-align="center" text-anchor="middle" style="line-height:1.25" xml:space="preserve"><tspan x="175.84756" y="42.989265" fill="#5c5470" font-family="Helvetica" font-size="5.475px" stroke-width=".25664" text-align="center" text-anchor="middle">taxonomy.apimap</tspan></text>
 <text x="105.02262" y="40.870682" font-family="Helvetica-Light" font-size="5.475px" stroke-width=".25664" text-align="center" text-anchor="middle" style="line-height:1.25" xml:space="preserve"><tspan x="105.02262" y="40.870682" font-family="Helvetica" font-size="5.475px" stroke-width=".25664" text-align="end" text-anchor="end"/></text>
 <g transform="translate(-69.111 2.3219)">
  <g fill="none" stroke="#5c5470" stroke-linecap="round">
   <circle cx="104.44" cy="19.469" r="14.572" stroke-width=".26458"/>
   <path transform="scale(.26458)" d="m371 52.203c-1.1042 0-2.0078 0.90357-2.0078 2.0078v3.2559h-4.1426c-0.88894 0-1.6055 0.71653-1.6055 1.6055v33.932c0 0.88894 0.71653 1.6055 1.6055 1.6055h59.775c0.88895 0 1.6035-0.71653 1.6035-1.6055v-33.932c0-0.88894-0.71457-1.6055-1.6035-1.6055h-39.748v-3.2559c0-1.1042-0.89773-2.0078-2.002-2.0078z"/>
   <path d="m97.814 16.954c-0.0866 0-0.15762 0.15761-0.15762 0.15761v1.9063c0 0.04114 0.03327 0.0739 0.07441 0.0739h2.7668c0.0411 0 0.0739-0.03276 0.0739-0.0739v-1.5704c0-0.04114-0.0328-0.07441-0.0739-0.07441h-1.5953v-0.26148s-0.07049-0.15761-0.1571-0.15761z" color="#000000" color-rendering="auto" dominant-baseline="auto" image-rendering="auto" shape-rendering="auto" solid-color="#000000" stop-color="#000000" stroke-width=".26458" style="font-feature-settings:normal;font-variant-alternates:normal;font-variant-caps:normal;font-variant-east-asian:normal;font-variant-ligatures:normal;font-variant-numeric:normal;font-variant-position:normal;font-variation-settings:normal;inline-size:0;isolation:auto;mix-blend-mode:normal;shape-margin:0;shape-padding:0;text-decoration-color:#000000;text-decoration-line:none;text-decoration-style:solid;text-indent:0;text-orientation:mixed;text-transform:none;white-space:normal"/>
  </g>
  <g stroke-width=".26458">
   <text x="101.47826" y="18.745659" fill="#5c5470" font-family="Helvetica-Light" font-size="2.1167px" style="line-height:1.25" xml:space="preserve"><tspan x="101.47826" y="18.745659" fill="#5c5470" font-family="Helvetica" font-size="2.1167px" stroke-width=".26458">apimap</tspan></text>
   <path d="m97.814 20.381c-0.0866 0-0.15762 0.15761-0.15762 0.15761v1.9063c0 0.04114 0.03327 0.07442 0.07441 0.07442h2.7668c0.0411 0 0.0739-0.03327 0.0739-0.07442v-1.5704c0-0.04114-0.0328-0.07441-0.0739-0.07441h-1.5953v-0.26148s-0.07049-0.15761-0.1571-0.15761z" color="#000000" color-rendering="auto" dominant-baseline="auto" fill="none" image-rendering="auto" shape-rendering="auto" solid-color="#000000" stop-color="#000000" stroke="#5c5470" stroke-linecap="round" style="font-feature-settings:normal;font-variant-alternates:normal;font-variant-caps:normal;font-variant-east-asian:normal;font-variant-ligatures:normal;font-variant-numeric:normal;font-variant-position:normal;font-variation-settings:normal;inline-size:0;isolation:auto;mix-blend-mode:normal;shape-margin:0;shape-padding:0;text-decoration-color:#000000;text-decoration-line:none;text-decoration-style:solid;text-indent:0;text-orientation:mixed;text-transform:none;white-space:normal"/>
   <text x="101.25072" y="22.472427" fill="#5c5470" font-family="Helvetica-Light" font-size="2.8222px" style="line-height:1.25" xml:space="preserve"><tspan x="101.25072" y="22.472427" fill="#5c5470" font-size="2.8222px" stroke-width=".26458">...</tspan></text>
  </g>
 </g>
 <g transform="matrix(-.58186 0 0 .58186 197.56 -88.662)" fill="none" stroke="#5c5470" stroke-width=".88215">
  <path d="m105.16 192.94 3.8558 3.2396-3.8558 3.2396" stroke-linecap="round"/>
  <path d="m109.01 196.18h-22.823v82.801h-8.2632"/>
  <path d="m109.01 196.18h-22.823v82.801h-8.2632"/>
 </g>
 <text x="35.820469" y="43.040356" fill="#5c5470" font-family="Helvetica" font-size="5.4681px" stroke-width=".26458" text-anchor="middle" style="line-height:1.25" xml:space="preserve"><tspan x="35.820469" y="43.040356" text-align="center">Root folder of your </tspan><tspan x="35.820469" y="50.072639" text-align="center">project</tspan></text>
 <g transform="translate(1.3935 2.3219)">
  <g fill="none" stroke="#5c5470" stroke-linecap="round">
   <circle cx="104.44" cy="19.469" r="14.572" stroke-width=".26458"/>
   <path transform="scale(.26458)" d="m371 52.203c-1.1042 0-2.0078 0.90357-2.0078 2.0078v3.2559h-4.1426c-0.88894 0-1.6055 0.71653-1.6055 1.6055v33.932c0 0.88894 0.71653 1.6055 1.6055 1.6055h59.775c0.88895 0 1.6035-0.71653 1.6035-1.6055v-33.932c0-0.88894-0.71457-1.6055-1.6035-1.6055h-39.748v-3.2559c0-1.1042-0.89773-2.0078-2.002-2.0078z"/>
   <path d="m97.814 16.954c-0.0866 0-0.15762 0.15761-0.15762 0.15761v1.9063c0 0.04114 0.03327 0.0739 0.07441 0.0739h2.7668c0.0411 0 0.0739-0.03276 0.0739-0.0739v-1.5704c0-0.04114-0.0328-0.07441-0.0739-0.07441h-1.5953v-0.26148s-0.07049-0.15761-0.1571-0.15761z" color="#000000" color-rendering="auto" dominant-baseline="auto" image-rendering="auto" shape-rendering="auto" solid-color="#000000" stop-color="#000000" stroke-width=".26458" style="font-feature-settings:normal;font-variant-alternates:normal;font-variant-caps:normal;font-variant-east-asian:normal;font-variant-ligatures:normal;font-variant-numeric:normal;font-variant-position:normal;font-variation-settings:normal;inline-size:0;isolation:auto;mix-blend-mode:normal;shape-margin:0;shape-padding:0;text-decoration-color:#000000;text-decoration-line:none;text-decoration-style:solid;text-indent:0;text-orientation:mixed;text-transform:none;white-space:normal"/>
  </g>
  <g stroke-width=".26458">
   <text x="101.47826" y="18.745659" fill="#5c5470" font-family="Helvetica-Light" font-size="2.1167px" style="line-height:1.25" xml:space="preserve"><tspan x="101.47826" y="18.745659" fill="#5c5470" font-family="Helvetica" font-size="2.1167px" stroke-width=".26458">name</tspan></text>
   <path d="m97.814 20.381c-0.0866 0-0.15762 0.15761-0.15762 0.15761v1.9063c0 0.04114 0.03327 0.07442 0.07441 0.07442h2.7668c0.0411 0 0.0739-0.03327 0.0739-0.07442v-1.5704c0-0.04114-0.0328-0.07441-0.0739-0.07441h-1.5953v-0.26148s-0.07049-0.15761-0.1571-0.15761z" color="#000000" color-rendering="auto" dominant-baseline="auto" fill="none" image-rendering="auto" shape-rendering="auto" solid-color="#000000" stop-color="#000000" stroke="#5c5470" stroke-linecap="round" style="font-feature-settings:normal;font-variant-alternates:normal;font-variant-caps:normal;font-variant-east-asian:normal;font-variant-ligatures:normal;font-variant-numeric:normal;font-variant-position:normal;font-variation-settings:normal;inline-size:0;isolation:auto;mix-blend-mode:normal;shape-margin:0;shape-padding:0;text-decoration-color:#000000;text-decoration-line:none;text-decoration-style:solid;text-indent:0;text-orientation:mixed;text-transform:none;white-space:normal"/>
   <text x="101.25072" y="22.472427" fill="#5c5470" font-family="Helvetica-Light" font-size="2.8222px" style="line-height:1.25" xml:space="preserve"><tspan x="101.25072" y="22.472427" fill="#5c5470" font-size="2.8222px" stroke-width=".26458">...</tspan></text>
  </g>
 </g>
 <text x="106.38468" y="43.040356" fill="#5c5470" font-family="Helvetica" font-size="5.4681px" stroke-width=".26458" text-anchor="middle" style="line-height:1.25" xml:space="preserve"><tspan x="106.38468" y="43.040356" text-align="center">Name of the </tspan><tspan x="106.38468" y="50.072639" text-align="center">API</tspan></text>
 <g transform="translate(1.3935 52.64)">
  <g fill="none" stroke="#5c5470" stroke-linecap="round">
   <circle cx="104.44" cy="19.469" r="14.572" stroke-width=".26458"/>
   <path transform="scale(.26458)" d="m371 52.203c-1.1042 0-2.0078 0.90357-2.0078 2.0078v3.2559h-4.1426c-0.88894 0-1.6055 0.71653-1.6055 1.6055v33.932c0 0.88894 0.71653 1.6055 1.6055 1.6055h59.775c0.88895 0 1.6035-0.71653 1.6035-1.6055v-33.932c0-0.88894-0.71457-1.6055-1.6035-1.6055h-39.748v-3.2559c0-1.1042-0.89773-2.0078-2.002-2.0078z"/>
   <path d="m97.814 16.954c-0.0866 0-0.15762 0.15761-0.15762 0.15761v1.9063c0 0.04114 0.03327 0.0739 0.07441 0.0739h2.7668c0.0411 0 0.0739-0.03276 0.0739-0.0739v-1.5704c0-0.04114-0.0328-0.07441-0.0739-0.07441h-1.5953v-0.26148s-0.07049-0.15761-0.1571-0.15761z" color="#000000" color-rendering="auto" dominant-baseline="auto" image-rendering="auto" shape-rendering="auto" solid-color="#000000" stop-color="#000000" stroke-width=".26458" style="font-feature-settings:normal;font-variant-alternates:normal;font-variant-caps:normal;font-variant-east-asian:normal;font-variant-ligatures:normal;font-variant-numeric:normal;font-variant-position:normal;font-variation-settings:normal;inline-size:0;isolation:auto;mix-blend-mode:normal;shape-margin:0;shape-padding:0;text-decoration-color:#000000;text-decoration-line:none;text-decoration-style:solid;text-indent:0;text-orientation:mixed;text-transform:none;white-space:normal"/>
  </g>
  <g stroke-width=".26458">
   <text x="101.47826" y="18.745659" fill="#5c5470" font-family="Helvetica-Light" font-size="2.1167px" style="line-height:1.25" xml:space="preserve"><tspan x="101.47826" y="18.745659" fill="#5c5470" font-family="Helvetica" font-size="2.1167px" stroke-width=".26458">name</tspan></text>
   <path d="m97.814 20.381c-0.0866 0-0.15762 0.15761-0.15762 0.15761v1.9063c0 0.04114 0.03327 0.07442 0.07441 0.07442h2.7668c0.0411 0 0.0739-0.03327 0.0739-0.07442v-1.5704c0-0.04114-0.0328-0.07441-0.0739-0.07441h-1.5953v-0.26148s-0.07049-0.15761-0.1571-0.15761z" color="#000000" color-rendering="auto" dominant-baseline="auto" fill="none" image-rendering="auto" shape-rendering="auto" solid-color="#000000" stop-color="#000000" stroke="#5c5470" stroke-linecap="round" style="font-feature-settings:normal;font-variant-alternates:normal;font-variant-caps:normal;font-variant-east-asian:normal;font-variant-ligatures:normal;font-variant-numeric:normal;font-variant-position:normal;font-variation-settings:normal;inline-size:0;isolation:auto;mix-blend-mode:normal;shape-margin:0;shape-padding:0;text-decoration-color:#000000;text-decoration-line:none;text-decoration-style:solid;text-indent:0;text-orientation:mixed;text-transform:none;white-space:normal"/>
   <text x="101.25072" y="22.472427" fill="#5c5470" font-family="Helvetica-Light" font-size="2.8222px" style="line-height:1.25" xml:space="preserve"><tspan x="101.25072" y="22.472427" fill="#5c5470" font-size="2.8222px" stroke-width=".26458">...</tspan></text>
  </g>
 </g>
 <text x="105.84668" y="90.486061" fill="#5c5470" font-family="Helvetica-Light" font-size="5.4681px" stroke-width=".26458" style="line-height:1.25" xml:space="preserve"><tspan x="105.84668" y="90.486061" fill="#5c5470" font-family="Helvetica" font-size="5.4681px" stroke-width=".26458" text-align="center" text-anchor="middle">...</tspan></text>
 <g fill="none" stroke="#5c5470" stroke-width=".88215">
  <g transform="matrix(-.58186 0 0 .58186 197.56 -93.491)">
   <path d="m105.16 192.94 3.8558 3.2396-3.8558 3.2396" stroke-linecap="round"/>
   <path d="m109.01 196.18h-22.823"/>
  </g>
  <g transform="matrix(-.58186 0 0 .58186 127.3 -88.662)">
   <path d="m105.16 192.94 3.8558 3.2396-3.8558 3.2396" stroke-linecap="round"/>
   <path d="m109.01 196.18h-22.823v82.801h-8.2632"/>
   <path d="m109.01 196.18h-22.823v82.801h-8.2632"/>
  </g>
  <g transform="matrix(-.58186 0 0 .58186 127.3 -93.491)">
   <path d="m105.16 192.94 3.8558 3.2396-3.8558 3.2396" stroke-linecap="round"/>
   <path d="m109.01 196.18h-22.823"/>
  </g>
 </g>
</svg>
