<svg width="40" height="40" version="1.1" viewBox="0 0 10.583 10.583" xmlns="http://www.w3.org/2000/svg">
    <g stroke="#4d4d4d" stroke-linecap="round" stroke-width=".23098">
        <path d="m9.3835 3.5378h-3.347c-0.41559 0-0.75017 0.33458-0.75017 0.75017v1.1578c0 0.41559 0.33458 0.75017 0.75017 0.75017h3.347c0.41559 0 0.5355-0.39431 0.75017-0.75017l0.37508-0.62176-0.37508-0.53601c-0.23827-0.34051-0.33457-0.75017-0.75017-0.75017z"
              fill="#f2f2f2"/>
        <path d="m4.4736 8.5287v-6.6043c0-0.41559 0.33458-0.75017 0.75017-0.75017 0.41559 0 0.75017 0.33458 0.75017 0.75017v6.6043"
              fill="#fff"/>
        <path d="m1.2045 2.2997h3.347c0.41559 0 0.75017 0.33458 0.75017 0.75017v1.1578c0 0.41559-0.33458 0.75017-0.75017 0.75017h-3.347c-0.41559 0-0.5355-0.39431-0.75017-0.75017l-0.37509-0.62176 0.37509-0.53601c0.23827-0.3405 0.33458-0.75017 0.75017-0.75017z"
              fill="#f9f9f9"/>
        <path d="m5.6548 1.9121v7.5042" fill="#2c5aa0"/>
    </g>
</svg>
